<svg width="17" height="16" viewBox="0 0 17 16" fill="none" xmlns="http://www.w3.org/2000/svg">
<path d="M10.4742 1.806H14.5871L15.6289 7.64639L10.4742 6.6956V1.806Z" fill="white"/>
<path fill-rule="evenodd" clip-rule="evenodd" d="M11.7724 0.00013446C12.3087 0.00013446 12.8442 0.0750812 13.3534 0.244343C16.4907 1.25486 17.6212 4.66536 16.6768 7.64639C16.1413 9.16974 15.2659 10.56 14.1192 11.696C12.4779 13.2708 10.6768 14.6686 8.73792 15.8728L8.52542 16L8.30443 15.8644C6.3588 14.6686 4.54747 13.2708 2.89083 11.6876C1.75185 10.5516 0.875505 9.16974 0.331511 7.64639C-0.628979 4.66536 0.501509 1.25486 3.67283 0.226659C3.91932 0.142449 4.17347 0.0835022 4.42847 0.0506603H4.53047C4.76931 0.0161343 5.00646 0.00013446 5.24446 0.00013446H5.33796C5.87345 0.0161343 6.39195 0.108765 6.89429 0.278027H6.94444C6.97844 0.294027 7.00394 0.311711 7.02094 0.327711C7.20879 0.3875 7.38644 0.454867 7.55643 0.547498L7.87943 0.690655C7.95748 0.731894 8.04508 0.794907 8.1208 0.849366C8.16877 0.88387 8.21196 0.91494 8.24493 0.934863C8.2588 0.942973 8.2729 0.951127 8.28712 0.959348C8.35999 1.0015 8.43591 1.0454 8.49992 1.09402C9.44426 0.379079 10.5909 -0.00828652 11.7724 0.00013446ZM14.0334 6.06313C14.3819 6.05387 14.6794 5.77682 14.7049 5.42229V5.32208C14.7304 4.14231 14.0088 3.07368 12.9115 2.66105C12.563 2.54232 12.1805 2.72842 12.053 3.0821C11.934 3.43578 12.121 3.82315 12.478 3.94862C13.0228 4.15073 13.3874 4.68209 13.3874 5.27072V5.29682C13.3713 5.48966 13.4299 5.67577 13.5489 5.81892C13.6679 5.96208 13.8464 6.04545 14.0334 6.06313Z" fill="white"/>
</svg>
